<?xml version="1.0" encoding="utf-8"?>
<!-- Generator: Adobe Illustrator 22.1.0, SVG Export Plug-In . SVG Version: 6.00 Build 0)  -->
<svg version="1.1" id="Layer_1" xmlns="http://www.w3.org/2000/svg" xmlns:xlink="http://www.w3.org/1999/xlink" x="0px" y="0px"
	 viewBox="0 0 296 43" style="enable-background:new 0 0 296 43;" xml:space="preserve">
<style type="text/css">
	.st0{fill:#EC6C37;}
</style>
<path class="st0" d="M12,30.6c0.8,2,2,3.5,3.6,4.5c1.5,1,3.3,1.5,5.3,1.5c1.5,0,3-0.3,4.5-1s2.9-1.6,4-2.7c0.5-0.5,0.9-0.9,1.2-1.1
	c0.3-0.2,0.5-0.3,0.8-0.3c0.4,0,0.8,0.1,1.1,0.4c0.3,0.3,0.4,0.7,0.4,1.2c0,0.6-0.3,1.3-0.9,2.1s-1.3,1.5-2.3,2.2
	c-1.9,1.4-4,2.5-6.4,3.4c-2.4,0.8-4.8,1.2-7.2,1.2c-2.4,0-4.5-0.4-6.5-1.1c-2-0.7-3.7-1.8-5.1-3.1c-1.4-1.3-2.5-3-3.3-4.8
	C0.4,31.2,0,29.2,0,27c0-2.2,0.4-4.2,1.3-6c0.8-1.9,2-3.5,3.5-4.9c1.5-1.4,3.2-2.5,5.1-3.4c2-0.8,4.1-1.2,6.3-1.2s4.4,0.5,6.4,1.4
	c2,0.9,3.7,2.3,5.2,4c0.7,0.9,1.4,1.8,1.9,2.9c0.6,1.1,0.9,1.8,0.9,2.2c0,0.2-0.1,0.3-0.3,0.4c-0.2,0.1-0.5,0.3-1.1,0.6L28,23.5
	l-1.6,0.7L12,30.6L12,30.6z M18.2,24c0.7-0.4,1.2-0.6,1.5-0.9c0.3-0.2,0.4-0.4,0.4-0.7c0-0.4-0.2-1.1-0.6-1.9
	c-0.4-0.8-0.9-1.6-1.3-2.3c-0.6-0.8-1.3-1.4-2.1-1.8c-0.8-0.4-1.6-0.7-2.4-0.7c-1.4,0-2.6,0.5-3.4,1.5c-0.9,1-1.3,2.4-1.3,4.1
	c0,0.7,0.1,1.4,0.2,2.1c0.1,0.7,0.3,1.3,0.4,1.8c0.2,0.5,0.4,1,0.6,1.3c0.2,0.3,0.5,0.5,0.7,0.5c0.2,0,0.6-0.1,1.2-0.4L18.2,24z"/>
<path class="st0" d="M54.6,20c0.4-1.1,0.5-2,0.5-2.7c0-0.5-0.1-0.7-0.2-0.9c-0.1-0.1-0.6-0.4-1.4-0.9c-0.6-0.4-1-0.9-1-1.6
	c0-1.2,0.9-1.8,2.8-1.8h8.5c1.9,0,2.9,0.7,2.9,2.1c0,0.5-0.1,1-0.4,1.2c-0.3,0.3-0.9,0.6-1.8,1.1c-0.5,0.2-0.8,0.5-1.2,0.7
	c-0.3,0.2-0.6,0.5-0.8,0.9c-0.2,0.3-0.5,0.8-0.7,1.3c-0.2,0.5-0.5,1.2-0.7,2l-7.6,19c-0.3,0.9-0.6,1.4-0.8,1.5
	c-0.2,0.2-0.8,0.2-1.6,0.2h-4.4c-0.5,0-0.9,0-1.1-0.1c-0.2,0-0.4-0.1-0.5-0.2c0,0-0.1-0.1-0.1-0.1c0,0-0.1-0.1-0.2-0.3
	c-0.1-0.1-0.2-0.4-0.3-0.6c-0.1-0.3-0.3-0.7-0.6-1.2L35.1,20c-0.3-0.5-0.5-1-0.7-1.4c-0.2-0.4-0.5-0.7-0.7-1c-0.3-0.3-0.6-0.5-1-0.8
	c-0.4-0.2-0.9-0.5-1.5-0.9c-0.7-0.5-1.1-1.1-1.1-1.8c0-1.3,0.8-2,2.5-2h12.1c1,0,1.6,0.1,2,0.4c0.4,0.3,0.6,0.8,0.6,1.5
	c0,0.6-0.1,1-0.3,1.3c-0.2,0.3-0.7,0.6-1.5,1c-0.7,0.4-1.1,0.8-1.1,1.4c0,0.6,0.2,1.3,0.5,2.2l5.1,12.3L54.6,20L54.6,20z"/>
<path class="st0" d="M77.6,30.6c0.8,2,2,3.5,3.6,4.5c1.5,1,3.3,1.5,5.3,1.5c1.5,0,3-0.3,4.5-1s2.9-1.6,4-2.7
	c0.5-0.5,0.9-0.9,1.2-1.1c0.3-0.2,0.5-0.3,0.8-0.3c0.4,0,0.8,0.1,1.1,0.4c0.3,0.3,0.4,0.7,0.4,1.2c0,0.6-0.3,1.3-0.9,2.1
	s-1.3,1.5-2.3,2.2c-1.9,1.4-4,2.5-6.4,3.4c-2.4,0.8-4.8,1.2-7.2,1.2c-2.4,0-4.5-0.4-6.5-1.1c-2-0.7-3.7-1.8-5.1-3.1
	c-1.4-1.3-2.5-3-3.3-4.8c-0.8-1.9-1.2-3.9-1.2-6.2c0-2.2,0.4-4.2,1.3-6c0.8-1.9,2-3.5,3.5-4.9c1.5-1.4,3.2-2.5,5.1-3.4
	c2-0.8,4.1-1.2,6.3-1.2c2.2,0,4.4,0.5,6.4,1.4s3.7,2.3,5.2,4c0.7,0.9,1.4,1.8,1.9,2.9c0.6,1.1,0.9,1.8,0.9,2.2
	c0,0.2-0.1,0.3-0.3,0.4c-0.2,0.1-0.5,0.3-1.1,0.6l-1.2,0.6L92,24.2L77.6,30.6L77.6,30.6z M83.8,24c0.7-0.4,1.2-0.6,1.5-0.9
	c0.3-0.2,0.4-0.4,0.4-0.7c0-0.4-0.2-1.1-0.6-1.9c-0.4-0.8-0.9-1.6-1.3-2.3c-0.6-0.8-1.3-1.4-2.1-1.8c-0.8-0.4-1.6-0.7-2.4-0.7
	c-1.4,0-2.6,0.5-3.4,1.5c-0.9,1-1.3,2.4-1.3,4.1c0,0.7,0.1,1.4,0.2,2.1c0.1,0.7,0.3,1.3,0.4,1.8c0.2,0.5,0.4,1,0.6,1.3
	c0.2,0.3,0.5,0.5,0.7,0.5c0.2,0,0.6-0.1,1.2-0.4L83.8,24z"/>
<path class="st0" d="M112,18.5c1.3-1.6,2.4-2.7,3.1-3.4c0.7-0.7,1.4-1.3,2.1-1.7c0.8-0.5,1.7-0.9,2.8-1.2c1.1-0.3,2.2-0.4,3.3-0.4
	c2.4,0,3.6,0.6,3.6,1.7c0,0.4-0.1,0.8-0.2,1.2l-2.7,7.8c-0.2,0.7-0.5,1.1-0.7,1.4c-0.2,0.2-0.5,0.4-1,0.4c-0.3,0-0.5-0.1-0.7-0.2
	c-0.2-0.1-0.4-0.4-0.6-0.9c-1-1.7-2.3-2.6-3.9-2.6c-0.8,0-1.6,0.2-2.4,0.6c-0.7,0.4-1.4,1-1.9,1.7c-0.4,0.5-0.6,1.3-0.8,2.2
	c-0.2,0.9-0.3,2.2-0.3,3.8v3.1c0,2.2,0.2,3.8,0.6,4.6c0.2,0.4,0.4,0.6,0.6,0.8c0.2,0.2,0.6,0.4,1.3,0.7c1.1,0.5,1.7,1.3,1.7,2.1
	c0,1.4-1,2-3.1,2h-11c-2.2,0-3.3-0.7-3.3-2c0-0.9,0.6-1.6,1.7-2.1c0.8-0.4,1.3-0.7,1.5-1c0.3-0.3,0.4-0.8,0.6-1.5
	c0.1-0.5,0.2-1.5,0.2-2.8c0.1-1.3,0.1-2.9,0.1-4.6v-4.7c0-1-0.1-1.7-0.4-2c-0.3-0.3-1-0.6-2-0.8c-0.4-0.1-0.8-0.3-1.1-0.6
	c-0.3-0.3-0.4-0.7-0.4-1.1c0-0.6,0.4-1.1,1.1-1.6l8.9-5.2c0.6-0.3,1.2-0.5,1.6-0.5c0.7,0,1.2,0.4,1.4,1.1c0,0.1,0.1,0.2,0.1,0.3
	c0,0.1,0,0.3,0,0.6s0,0.7,0,1.4c0,0.6,0,1.5,0,2.6L112,18.5L112,18.5z"/>
<path d="M187.4,12.9c1.8,1.2,3.2,3.2,4.1,5.9c0.9,2.7,1.3,6.4,1.3,11v12.5h-12.7V29.9c0-2.2-0.1-4.1-0.4-5.6
	c-0.3-1.5-0.9-2.8-1.8-3.8c-0.9-1-2.3-1.5-4.2-1.5s-3.2,0.5-4.1,1.5c-0.9,1-1.5,2.2-1.8,3.7c-0.3,1.5-0.4,3.4-0.4,5.6v12.5h-12.7
	V29.9c0-2.2-0.1-4.1-0.4-5.7c-0.3-1.5-0.8-2.8-1.8-3.8c-0.9-1-2.3-1.5-4.1-1.5c-2,0-3.4,0.5-4.3,1.5c-0.9,1-1.5,2.3-1.7,3.8
	s-0.4,3.7-0.4,6.3v11.6h-12.8V12h11.4l0.9,3.6c1.4-1.6,3.2-2.7,5.4-3.5c2.2-0.7,4.8-1.1,7.9-1.1c2.7,0,4.9,0.5,6.6,1.5
	c1.7,1,3.1,2.6,4,4.9c1.3-2.2,3.1-3.9,5.4-4.9c2.4-1,5.4-1.5,9.2-1.5C183.2,11,185.6,11.6,187.4,12.9L187.4,12.9z"/>
<path d="M237.3,28h-28c0.2,2.2,1.1,4,2.5,5.4c1.4,1.4,3.4,2.1,5.8,2.1c2,0,3.8-0.5,5.3-1.4c1.6-1,2.3-2.4,2.3-4.4h12
	c0,4.1-1.7,7.2-5.2,9.3c-3.5,2.1-8.3,3.2-14.5,3.2c-3.8,0-7.3-0.6-10.4-1.9c-3.1-1.3-5.6-3.1-7.4-5.5c-1.8-2.4-2.7-5.1-2.7-8.1
	s0.9-5.8,2.7-8.2c1.8-2.4,4.3-4.2,7.4-5.5c3.1-1.3,6.6-1.9,10.4-1.9c3.8,0,7.4,0.6,10.3,1.9c3,1.3,5.3,3,6.9,5.3
	c1.6,2.3,2.5,5,2.5,8.1v0.3L237.3,28L237.3,28z M212.2,19c-1.2,1-2.1,2.3-2.5,4.1h15.2c-0.4-1.8-1.2-3.1-2.3-4.1
	c-1.2-1-2.9-1.5-5.1-1.5C215.3,17.5,213.4,18,212.2,19L212.2,19z"/>
<path d="M278.9,15.4c2.5,2.9,3.7,7.7,3.7,14.3v12.5h-12.7V29.9c0-2.3-0.1-4.2-0.4-5.7c-0.3-1.5-0.9-2.7-1.9-3.7
	c-1-1-2.5-1.5-4.6-1.5c-2.2,0-3.9,0.5-4.9,1.4c-1.1,0.9-1.8,2.1-2,3.6c-0.3,1.5-0.4,3.4-0.4,5.8v12.3h-12.7V12h12.7v3.8
	c2.8-3.2,7.1-4.8,12.8-4.8C272.9,11,276.4,12.5,278.9,15.4L278.9,15.4z"/>
</svg>
